# xmcd CD database file
#
# Track frame offsets:
#	150
#	21186
#	40264
#	60673
#	73946
#	88385
#	112678
#	140595
#	173571
#	195658
#	212894
#	228950
#	248554
#	263103
#	277532
#	290396
#	306150
#
# Disc length: 4413 seconds
#
# Revision: 0
# Processed by: cddbd v1.5.2PL0 Copyright (c) Steve Scherf et al.
# Submitted via: CDex 1.51
#
DISCID=ee113b11
DTITLE=Björnstad, Ketil - The Way Through The Woods
DYEAR=2006
DGENRE=Jazz
TTITLE0=Solace
TTITLE1=The Secret
TTITLE2=The Blue Room In Vika
TTITLE3=The Day After
TTITLE4=Libidel's Song Before The Mirror
TTITLE5=By The Fjord
TTITLE6=The Way Through The Woods
TTITLE7=Brahms: Intermezzo Opus 118 No. 2
TTITLE8=Bacarolle
TTITLE9=I've Never Sailed the Amazon
TTITLE10=The White Hotel
TTITLE11=The Birth
TTITLE12=The First Night
TTITLE13=The Change
TTITLE14=Nocturne
TTITLE15=The Old Story
TTITLE16=Blue Man
EXTD=YEAR: 2006
EXTT0=
EXTT1=
EXTT2=
EXTT3=
EXTT4=
EXTT5=
EXTT6=
EXTT7=
EXTT8=
EXTT9=
EXTT10=
EXTT11=
EXTT12=
EXTT13=
EXTT14=
EXTT15=
EXTT16=
PLAYORDER=
